TITLE ""
FILE "1Q_j_2128-2141.mp3" MP3
  TRACK 01 AUDIO
    TITLE "1Q_j_2128-2141_01"
    INDEX 01 00:00:00
  TRACK 02 AUDIO
    TITLE "1Q_j_2128-2141_02"
    INDEX 01 00:01:27
  TRACK 03 AUDIO
    TITLE "1Q_j_2128-2141_03"
    INDEX 01 00:01:39
  TRACK 04 AUDIO
    TITLE "1Q_j_2128-2141_04"
    INDEX 01 00:03:40
  TRACK 05 AUDIO
    TITLE "1Q_j_2128-2141_05"
    INDEX 01 00:03:46
  TRACK 06 AUDIO
    TITLE "1Q_j_2128-2141_06"
    INDEX 01 00:10:40
  TRACK 07 AUDIO
    TITLE "1Q_j_2128-2141_07"
    INDEX 01 00:11:12
  TRACK 08 AUDIO
    TITLE "1Q_j_2128-2141_08"
    INDEX 01 00:12:57
  TRACK 09 AUDIO
    TITLE "1Q_j_2128-2141_09"
    INDEX 01 00:12:62
  TRACK 10 AUDIO
    TITLE "1Q_j_2128-2141_10"
    INDEX 01 00:14:48
  TRACK 11 AUDIO
    TITLE "1Q_j_2128-2141_11"
    INDEX 01 00:14:54
  TRACK 12 AUDIO
    TITLE "1Q_j_2128-2141_12"
    INDEX 01 00:20:74
  TRACK 13 AUDIO
    TITLE "1Q_j_2128-2141_13"
    INDEX 01 00:21:46
  TRACK 14 AUDIO
    TITLE "1Q_j_2128-2141_14"
    INDEX 01 00:22:71
  TRACK 15 AUDIO
    TITLE "1Q_j_2128-2141_15"
    INDEX 01 00:23:07
  TRACK 16 AUDIO
    TITLE "1Q_j_2128-2141_16"
    INDEX 01 00:24:75
  TRACK 17 AUDIO
    TITLE "1Q_j_2128-2141_17"
    INDEX 01 00:25:08
  TRACK 18 AUDIO
    TITLE "1Q_j_2128-2141_18"
    INDEX 01 00:32:02
  TRACK 19 AUDIO
    TITLE "1Q_j_2128-2141_19"
    INDEX 01 00:32:48
  TRACK 20 AUDIO
    TITLE "1Q_j_2128-2141_20"
    INDEX 01 00:33:63
  TRACK 21 AUDIO
    TITLE "1Q_j_2128-2141_21"
    INDEX 01 00:33:72
  TRACK 22 AUDIO
    TITLE "1Q_j_2128-2141_22"
    INDEX 01 00:35:73
  TRACK 23 AUDIO
    TITLE "1Q_j_2128-2141_23"
    INDEX 01 00:36:06
  TRACK 24 AUDIO
    TITLE "1Q_j_2128-2141_24"
    INDEX 01 00:40:37
  TRACK 25 AUDIO
    TITLE "1Q_j_2128-2141_25"
    INDEX 01 00:41:09
  TRACK 26 AUDIO
    TITLE "1Q_j_2128-2141_26"
    INDEX 01 00:42:38
  TRACK 27 AUDIO
    TITLE "1Q_j_2128-2141_27"
    INDEX 01 00:42:46
  TRACK 28 AUDIO
    TITLE "1Q_j_2128-2141_28"
    INDEX 01 00:44:27
  TRACK 29 AUDIO
    TITLE "1Q_j_2128-2141_29"
    INDEX 01 00:44:35
  TRACK 30 AUDIO
    TITLE "1Q_j_2128-2141_30"
    INDEX 01 00:51:21
  TRACK 31 AUDIO
    TITLE "1Q_j_2128-2141_31"
    INDEX 01 00:51:68
  TRACK 32 AUDIO
    TITLE "1Q_j_2128-2141_32"
    INDEX 01 00:53:22
  TRACK 33 AUDIO
    TITLE "1Q_j_2128-2141_33"
    INDEX 01 00:53:34
  TRACK 34 AUDIO
    TITLE "1Q_j_2128-2141_34"
    INDEX 01 00:55:21
  TRACK 35 AUDIO
    TITLE "1Q_j_2128-2141_35"
    INDEX 01 00:55:29
  TRACK 36 AUDIO
    TITLE "1Q_j_2128-2141_36"
    INDEX 01 01:03:17
  TRACK 37 AUDIO
    TITLE "1Q_j_2128-2141_37"
    INDEX 01 01:03:64
  TRACK 38 AUDIO
    TITLE "1Q_j_2128-2141_38"
    INDEX 01 01:05:14
  TRACK 39 AUDIO
    TITLE "1Q_j_2128-2141_39"
    INDEX 01 01:05:22
  TRACK 40 AUDIO
    TITLE "1Q_j_2128-2141_40"
    INDEX 01 01:07:44
  TRACK 41 AUDIO
    TITLE "1Q_j_2128-2141_41"
    INDEX 01 01:07:50
  TRACK 42 AUDIO
    TITLE "1Q_j_2128-2141_42"
    INDEX 01 01:14:46
  TRACK 43 AUDIO
    TITLE "1Q_j_2128-2141_43"
    INDEX 01 01:15:18
  TRACK 44 AUDIO
    TITLE "1Q_j_2128-2141_44"
    INDEX 01 01:16:25
  TRACK 45 AUDIO
    TITLE "1Q_j_2128-2141_45"
    INDEX 01 01:16:35
  TRACK 46 AUDIO
    TITLE "1Q_j_2128-2141_46"
    INDEX 01 01:17:60
  TRACK 47 AUDIO
    TITLE "1Q_j_2128-2141_47"
    INDEX 01 01:17:66
  TRACK 48 AUDIO
    TITLE "1Q_j_2128-2141_48"
    INDEX 01 01:23:70
  TRACK 49 AUDIO
    TITLE "1Q_j_2128-2141_49"
    INDEX 01 01:24:40
  TRACK 50 AUDIO
    TITLE "1Q_j_2128-2141_50"
    INDEX 01 01:25:58
  TRACK 51 AUDIO
    TITLE "1Q_j_2128-2141_51"
    INDEX 01 01:25:67
  TRACK 52 AUDIO
    TITLE "1Q_j_2128-2141_52"
    INDEX 01 01:27:15
  TRACK 53 AUDIO
    TITLE "1Q_j_2128-2141_53"
    INDEX 01 01:27:23
  TRACK 54 AUDIO
    TITLE "1Q_j_2128-2141_54"
    INDEX 01 01:31:66
  TRACK 55 AUDIO
    TITLE "1Q_j_2128-2141_55"
    INDEX 01 01:32:34
  TRACK 56 AUDIO
    TITLE "1Q_j_2128-2141_56"
    INDEX 01 01:33:43
  TRACK 57 AUDIO
    TITLE "1Q_j_2128-2141_57"
    INDEX 01 01:33:53
  TRACK 58 AUDIO
    TITLE "1Q_j_2128-2141_58"
    INDEX 01 01:35:56
  TRACK 59 AUDIO
    TITLE "1Q_j_2128-2141_59"
    INDEX 01 01:35:64
  TRACK 60 AUDIO
    TITLE "1Q_j_2128-2141_60"
    INDEX 01 01:42:36
  TRACK 61 AUDIO
    TITLE "1Q_j_2128-2141_61"
    INDEX 01 01:43:08
  TRACK 62 AUDIO
    TITLE "1Q_j_2128-2141_62"
    INDEX 01 01:44:22
  TRACK 63 AUDIO
    TITLE "1Q_j_2128-2141_63"
    INDEX 01 01:44:29
  TRACK 64 AUDIO
    TITLE "1Q_j_2128-2141_64"
    INDEX 01 01:46:05
  TRACK 65 AUDIO
    TITLE "1Q_j_2128-2141_65"
    INDEX 01 01:46:11
  TRACK 66 AUDIO
    TITLE "1Q_j_2128-2141_66"
    INDEX 01 01:51:06
  TRACK 67 AUDIO
    TITLE "1Q_j_2128-2141_67"
    INDEX 01 01:51:51
  TRACK 68 AUDIO
    TITLE "1Q_j_2128-2141_68"
    INDEX 01 01:53:11
  TRACK 69 AUDIO
    TITLE "1Q_j_2128-2141_69"
    INDEX 01 01:53:21
  TRACK 70 AUDIO
    TITLE "1Q_j_2128-2141_70"
    INDEX 01 01:55:37
  TRACK 71 AUDIO
    TITLE "1Q_j_2128-2141_71"
    INDEX 01 01:55:45
  TRACK 72 AUDIO
    TITLE "1Q_j_2128-2141_72"
    INDEX 01 02:02:41
  TRACK 73 AUDIO
    TITLE "1Q_j_2128-2141_73"
    INDEX 01 02:03:11
  TRACK 74 AUDIO
    TITLE "1Q_j_2128-2141_74"
    INDEX 01 02:04:32
  TRACK 75 AUDIO
    TITLE "1Q_j_2128-2141_75"
    INDEX 01 02:04:42
  TRACK 76 AUDIO
    TITLE "1Q_j_2128-2141_76"
    INDEX 01 02:07:09
  TRACK 77 AUDIO
    TITLE "1Q_j_2128-2141_77"
    INDEX 01 02:07:17
  TRACK 78 AUDIO
    TITLE "1Q_j_2128-2141_78"
    INDEX 01 02:12:20
  TRACK 79 AUDIO
    TITLE "1Q_j_2128-2141_79"
    INDEX 01 02:12:65
  TRACK 80 AUDIO
    TITLE "1Q_j_2128-2141_80"
    INDEX 01 02:14:15
  TRACK 81 AUDIO
    TITLE "1Q_j_2128-2141_81"
    INDEX 01 02:14:23
  TRACK 82 AUDIO
    TITLE "1Q_j_2128-2141_82"
    INDEX 01 02:16:18
  TRACK 83 AUDIO
    TITLE "1Q_j_2128-2141_83"
    INDEX 01 02:16:25
  TRACK 84 AUDIO
    TITLE "1Q_j_2128-2141_84"
    INDEX 01 02:23:24
